<svg width="20" height="20" viewBox="0 0 20 20" fill="none" xmlns="http://www.w3.org/2000/svg">
<g clip-path="url(#clip0_14_33117)">
<path d="M10.0003 18.3334C5.39783 18.3334 1.66699 14.6026 1.66699 10.0001C1.66699 5.39758 5.39783 1.66675 10.0003 1.66675C14.6028 1.66675 18.3337 5.39758 18.3337 10.0001C18.3337 14.6026 14.6028 18.3334 10.0003 18.3334ZM10.0003 16.6667C11.7684 16.6667 13.4641 15.9644 14.7144 14.7141C15.9646 13.4639 16.667 11.7682 16.667 10.0001C16.667 8.23197 15.9646 6.53628 14.7144 5.28604C13.4641 4.03579 11.7684 3.33341 10.0003 3.33341C8.23222 3.33341 6.53652 4.03579 5.28628 5.28604C4.03604 6.53628 3.33366 8.23197 3.33366 10.0001C3.33366 11.7682 4.03604 13.4639 5.28628 14.7141C6.53652 15.9644 8.23222 16.6667 10.0003 16.6667ZM10.0003 12.5001C9.33728 12.5001 8.7014 12.2367 8.23256 11.7678C7.76372 11.299 7.50033 10.6631 7.50033 10.0001C7.50033 9.33704 7.76372 8.70115 8.23256 8.23231C8.7014 7.76347 9.33728 7.50008 10.0003 7.50008C10.6634 7.50008 11.2993 7.76347 11.7681 8.23231C12.2369 8.70115 12.5003 9.33704 12.5003 10.0001C12.5003 10.6631 12.2369 11.299 11.7681 11.7678C11.2993 12.2367 10.6634 12.5001 10.0003 12.5001Z" fill="#FAAD14"/>
</g>
<defs>
<clipPath id="clip0_14_33117">
<rect width="20" height="20" fill="white"/>
</clipPath>
</defs>
</svg>
